<svg xmlns="http://www.w3.org/2000/svg" xmlns:xlink="http://www.w3.org/1999/xlink" width="960" height="540" viewBox="0 0 960 540">
  <defs>
    <linearGradient id="linear-gradient" x1="1" y1="0.983" x2="0" gradientUnits="objectBoundingBox">
      <stop offset="0" stop-color="#251e48" stop-opacity="0.769"/>
      <stop offset="1" stop-color="#c92e8a" stop-opacity="0.8"/>
    </linearGradient>
    <clipPath id="clip-path">
      <rect id="Nav" width="960" height="540" fill="url(#linear-gradient)"/>
    </clipPath>
  </defs>
  <g id="Bg_Illustration" data-name="Bg Illustration" clip-path="url(#clip-path)">
    <g id="work" transform="translate(146.358 0)">
      <g id="Layer_1" data-name="Layer 1" transform="translate(-3.642)">
        <path id="Path_5" data-name="Path 5" d="M1097.71,561.023s4.789,29.126,6.656,33.279-3.328,19.794-3.328,19.794l-28.62,1.924-2.2-27.491,15.916-23.151Z" transform="translate(-756.399 -419.038)" fill="#ed7b61"/>
        <circle id="Ellipse_1" data-name="Ellipse 1" cx="144.401" cy="144.401" r="144.401" transform="translate(378.482 30.834)" fill="#8b89d9"/>
        <path id="Path_6" data-name="Path 6" d="M1119.446,920.5c-4.225,60.423-53.058,84.167-53.058,84.167-19.085,7.943-35.493,10.722-49.195,10.693-33.669-.1-50.946-17.363-50.946-17.363H707.555a97.072,97.072,0,0,1-24.6-29.372C651.039,909.174,697.427,834.7,697.427,834.7l53.709-75.8c18.81-56.892,81.533-75.022,104.177-79.768,5.151-1.1,8.218-1.447,8.218-1.447l56.429-3.936c49.065-2.749,122.871,70.291,122.871,70.291s41.772,37.2,65.111,107.331a296.608,296.608,0,0,1,8.276,30.052A137.826,137.826,0,0,1,1119.446,920.5Z" transform="translate(-557.164 -475.363)" fill="rgba(252,255,254,0.63)"/>
        <path id="Path_7" data-name="Path 7" d="M1020.911,1015.46a2.633,2.633,0,0,1-2.633-2.619c0-1.447-.579-151.086,0-188.937.608-38.285,28.866-111.412,30.067-114.479a2.625,2.625,0,1,1,4.891,1.91c-.289.738-29.126,75.311-29.7,112.656-.593,37.793,0,187.331,0,188.836a2.633,2.633,0,0,1-2.619,2.633Z" transform="translate(-730.3 -492.404)" fill="#fff"/>
        <path id="Path_8" data-name="Path 8" d="M1111.6,1195.68l17.363,14.628s1.664,1.288,2.315,1.838H995.7s70.305-27.824,88.941-111.947c-2.286,15.916-3.805,45.433,9.173,72.461" transform="translate(-719.141 -688.626)" fill="rgba(252,255,254,0.63)"/>
        <path id="Path_9" data-name="Path 9" d="M771.87,823.318c-1.447,14.078,7.784,167.074,8.566,180.125H707.555a97.074,97.074,0,0,1-24.6-29.372c-31.919-59.453,14.469-133.926,14.469-133.926l53.709-75.789c18.81-56.892,81.533-75.022,104.177-79.768C773.78,749.526,773.389,808.719,771.87,823.318Z" transform="translate(-557.164 -480.821)" fill="rgba(252,255,254,0.63)"/>
        <path id="Path_10" data-name="Path 10" d="M1379.495,1098.158c-4.225,60.423-53.058,84.167-53.058,84.167-19.085,7.943-35.493,10.721-49.195,10.693-29.039-.072-45.852-12.95-49.947-16.48h1.1a90.5,90.5,0,0,1-36.549-39.486c15.424,9.694,54.346,30.949,94.049,27.8,46.156-3.646,83.631-37.779,82.054-135.864a296.614,296.614,0,0,1,8.276,30.052A137.84,137.84,0,0,1,1379.495,1098.158Z" transform="translate(-817.213 -653.018)" fill="rgba(252,255,254,0.63)"/>
        <path id="Path_11" data-name="Path 11" d="M1464.891,1167.335c-4.225,60.423-53.058,84.167-53.058,84.167-19.085,7.943-35.493,10.722-49.195,10.693A117.2,117.2,0,0,1,1464.891,1167.335Z" transform="translate(-902.609 -722.194)" fill="#8b89d9"/>
        <path id="Path_12" data-name="Path 12" d="M795.162,1286.646h-76.4a97.072,97.072,0,0,1-24.6-29.372,86.814,86.814,0,0,1,32.729-6.28C756.558,1250.994,782.284,1265.449,795.162,1286.646Z" transform="translate(-568.374 -764.024)" fill="#8b89d9"/>
        <circle id="Ellipse_2" data-name="Ellipse 2" cx="124.231" cy="124.231" r="124.231" transform="translate(76.093)" fill="#8b89d9"/>
        <rect id="Rectangle_12" data-name="Rectangle 12" width="179.908" height="79.305" rx="22.485" transform="translate(0 170.243)" fill="rgba(252,255,254,0.63)"/>
        <path id="Path_13" data-name="Path 13" d="M695.586,767.41s-6.873,15.7,3.27,24.207c0,0-29.777-4.572-34.031-24.207Z" transform="translate(-553.702 -522.232)" fill="rgba(252,255,254,0.63)"/>
        <path id="Path_14" data-name="Path 14" d="M924.468,960.668H923.4c-13.138,0-142.057.405-151.187,0-9.607-.449-13.123-11.821-13.123-11.821s-25.234-55.5-37.62-87.06a31.716,31.716,0,0,1-2.532-12.892c.781-19.389,26.623-21.226,26.623-21.226s115.926-.434,134.432,0,19.548,11.792,19.548,11.792,35,84.022,39.385,95.829S924.468,960.668,924.468,960.668Z" transform="translate(-580.756 -552.265)" fill="#faf9dd"/>
        <path id="Path_15" data-name="Path 15" d="M923.6,967.545l-.2.868c-13.138,0-142.057.405-151.187,0-9.607-.449-13.123-11.821-13.123-11.821s-25.234-55.5-37.62-87.06a31.716,31.716,0,0,1-2.532-12.892h0s3.386-13.022,23.151-13.774H877.27s8.913-.9,13.63,10.924,37.866,91.878,37.866,91.878S932.773,956.172,923.6,967.545Z" transform="translate(-580.756 -559.951)" fill="#38358c"/>
        <path id="Path_16" data-name="Path 16" d="M733.7,948.389s-.521,8.551,2.59,8.551h24.091s9.853-2.069,9.072,11.662c0,0,8.551,6.207,2.329,15.54l-1.027,3.111a8.681,8.681,0,0,1-1.823,11.908c-6.468,5.7-31.6,5.7-31.6,5.7s-15.8-8.8-16.321-23.31S717.9,960.051,733.7,948.389Z" transform="translate(-581.556 -612.721)" fill="#ffaf84"/>
        <path id="Path_17" data-name="Path 17" d="M1051.87,636.06l10.866,5.788,30.515-14.3,16.22,22.268-20.85,23.585s-18.463,3.082-24.51-8.464l-16.017,8.464s-10.128-10.664-6.251-18.911S1051.87,636.06,1051.87,636.06Z" transform="translate(-741.769 -452.303)" fill="#f6f6de"/>
        <path id="Path_18" data-name="Path 18" d="M981.972,473.9s-17.189-15.308-6.555-31.253,32.8-19.389,32.8-19.389-18.434-3.429-20.257,0,14.7-26.869,36.259,1.259c3.2,2.59,21.342-12.067,21.342-12.067s-3.154,17.826-8.218,15.5c0,0,12.024-.42,14.136,8.681s8.219,38.618-1.693,57.4c0,0-33.756-27.65-32.28-48.746C1017.45,445.191,974.781,455.826,981.972,473.9Z" transform="translate(-707.263 -344.747)" fill="#191919"/>
        <path id="Path_19" data-name="Path 19" d="M1061.61,506.3a26.535,26.535,0,0,1-9.072,11.4c-.42,31.832-15.41,34.827-22.557,37.62a25.423,25.423,0,0,1-10.2,1.186h0c-5.194-.318-10.128-1.707-11.951-3.067-8.682-2.894-14.541-33.12-14.99-39.472a67.745,67.745,0,0,0-3.27-14.469c-3.154-7.235,38-31.76,39.356-21.385.724,5.4,5.44,21.877,9.463,21.7.912,0,1.78-.969,2.561-3.1,4.225-11.4,11.575-9.072,16.451-9.072S1064.36,499.15,1061.61,506.3Z" transform="translate(-715.988 -376.322)" fill="#f8a698"/>
        <path id="Path_20" data-name="Path 20" d="M1091.994,518.115a26.537,26.537,0,0,1-9.072,11.4c-.42,31.832-15.41,34.827-22.557,37.62a25.422,25.422,0,0,1-10.2,1.186c15.149-4.876,18.477-22.7,19.316-33.944a151.283,151.283,0,0,0-.723-22.789c.912,0,1.78-.969,2.561-3.1,4.225-11.4,11.575-9.072,16.451-9.072S1094.743,510.967,1091.994,518.115Z" transform="translate(-746.372 -388.139)" fill="#f08f7c"/>
        <path id="Path_21" data-name="Path 21" d="M1013.222,552.877a11.576,11.576,0,0,1-5.31-1.085c-3.588-1.9-.333-15.164,3.024-25.958l2.5.781c-3.429,11.04-5.368,21.53-4.225,22.919,2.793,1.447,8.262.376,10.128-.159l.738,2.518a27.493,27.493,0,0,1-6.858.984Z" transform="translate(-724.464 -401.444)" fill="#b26857"/>
        <circle id="Ellipse_3" data-name="Ellipse 3" cx="3.559" cy="3.559" r="3.559" transform="translate(299.611 121.815)" fill="#b26857"/>
        <circle id="Ellipse_4" data-name="Ellipse 4" cx="3.559" cy="3.559" r="3.559" transform="translate(278.327 126.315)" fill="#b26857"/>
        <path id="Path_22" data-name="Path 22" d="M1040.427,594.244a17.161,17.161,0,0,1-8.841-2.981l1.447-2.141s4.818,3.328,9.1,2.3a7.755,7.755,0,0,0,4.905-4.341c3.661-7,3.617-9.607,3.617-9.636l2.619-.188c0,.3.159,3.27-3.921,11.04a10.128,10.128,0,0,1-6.612,5.6,10.3,10.3,0,0,1-2.315.347Z" transform="translate(-737.083 -427.156)" fill="#b26857"/>
        <path id="Path_23" data-name="Path 23" d="M1359.049,1083.279h-.217a2.619,2.619,0,0,1-2.4-2.894c3.921-48.3-32.671-60.5-56.878-68.569-6.959-2.329-13.022-4.341-16.7-6.815-16.365-10.91-22.875-39.529-23.15-40.745a2.619,2.619,0,1,1,5.107-1.143c0,.275,6.323,27.8,20.937,37.533,3.14,2.1,8.841,3.994,15.438,6.193,24.207,8.074,64.706,21.573,60.452,73.966A2.619,2.619,0,0,1,1359.049,1083.279Z" transform="translate(-851.099 -619.011)" fill="#fff"/>
        <path id="Path_24" data-name="Path 24" d="M1154.058,842.849s-7.234,2.59-4.919,6.468,14.469,13.225,14.469,13.225-5.18,1.809-4.92,6.989c0,0-9.058,3.892-4.919,12.689s9.839,7.784,9.839,7.784,7.524,20.98,14.252,23.31c0,0,19.692,1.548,31.354-10.128,0,0-1.042-32.382-5.961-37.316S1161.307,842.588,1154.058,842.849Z" transform="translate(-795.631 -559.95)" fill="#ffaf84"/>
        <path id="Path_25" data-name="Path 25" d="M1327.049,516.245s6.178-22.644,22.63-24.279,50.642-9.882,60.5-23.454,19.5-25.509,19.5-25.509,5.18-7.828,11.344-6.178,9.463,4.124,8.233,14.4-11.575,52.262-11.575,52.262l28.851,20.112s16.061,9.463,4.529,33.742-32.917,48.558-32.917,48.558-17.233,16.046-37,2.894-74.1-49.788-74.1-49.788-12.342-11.141-6.164-26.97Z" transform="translate(-880.867 -356.825)" fill="rgba(252,255,254,0.63)"/>
        <path id="Path_26" data-name="Path 26" d="M748.283,440.264S762.3,414.972,774.414,410.2s40.152-2.894,43.176,19.461a267.832,267.832,0,0,1,2.272,52.682c-.752,13.225-3.4,44.651-14.758,44.275s-60.235-15.149-68.945-21.964-28.938-18.9-26.507-37.865C712.284,445.936,724.409,440.64,748.283,440.264Z" transform="translate(-576.015 -342.554)" fill="rgba(252,255,254,0.63)"/>
        <ellipse id="Ellipse_5" data-name="Ellipse 5" cx="5.6" cy="7.611" rx="5.6" ry="7.611" transform="translate(284.057 257.173)" fill="#111440"/>
        <ellipse id="Ellipse_6" data-name="Ellipse 6" cx="5.6" cy="7.611" rx="5.6" ry="7.611" transform="translate(270.962 414.77)" fill="#111440"/>
        <ellipse id="Ellipse_7" data-name="Ellipse 7" cx="5.6" cy="7.611" rx="5.6" ry="7.611" transform="translate(270.948 492.339)" fill="#111440"/>
        <path id="Path_27" data-name="Path 27" d="M756.848,993.344a48.358,48.358,0,0,1-15.164-2.243l.883-2.46a51.176,51.176,0,0,0,36.853-3.212l1.172,2.344A52.872,52.872,0,0,1,756.848,993.344Z" transform="translate(-592.132 -631.242)" fill="#db7c68"/>
        <path id="Path_28" data-name="Path 28" d="M764.27,1028.605a119.373,119.373,0,0,1-17.059-1.273l.405-2.59c.217,0,22.167,3.444,34.726-1.288l.926,2.445C777.683,1027.983,770.608,1028.605,764.27,1028.605Z" transform="translate(-594.895 -650.254)" fill="#db7c68"/>
        <path id="Path_29" data-name="Path 29" d="M1201.351,893.057c-12.487-11.185-24.858-10.866-24.974-10.837l-.1-2.619c.535,0,13.485-.434,26.826,11.575Z" transform="translate(-809.428 -578.326)" fill="#db7c68"/>
        <path id="Path_30" data-name="Path 30" d="M1186.014,906.487c-5.064-5.556-19.2-7.235-19.345-7.235l.289-2.6c.622,0,15.265,1.765,20.995,8.045Z" transform="translate(-804.624 -586.851)" fill="#db7c68"/>
        <ellipse id="Ellipse_8" data-name="Ellipse 8" cx="10.982" cy="14.628" rx="10.982" ry="14.628" transform="matrix(0.975, -0.224, 0.224, 0.975, 226.134, 333.937)" fill="#faf9dd"/>
        <circle id="Ellipse_9" data-name="Ellipse 9" cx="10.447" cy="10.447" r="10.447" transform="translate(24.887 199.441)" fill="#8b89d9"/>
        <circle id="Ellipse_10" data-name="Ellipse 10" cx="10.447" cy="10.447" r="10.447" transform="translate(76.093 199.441)" fill="#8b89d9"/>
        <circle id="Ellipse_11" data-name="Ellipse 11" cx="10.447" cy="10.447" r="10.447" transform="translate(131.336 199.441)" fill="#8b89d9"/>
      </g>
    </g>
  </g>
</svg>
