<svg xmlns="http://www.w3.org/2000/svg" viewBox="0 0 241.23 208.34"><defs><style>.cls-1{fill:#b6b6b6;}.cls-2{fill:#858585;}.cls-3{fill:#646464;}.cls-4{fill:#9d9d9d;}.cls-5{fill:none;}</style></defs><g id="Layer_2" data-name="Layer 2"><g id="Layer_1-2" data-name="Layer 1"><polygon class="cls-1" points="241.23 208.34 217.44 208.34 207.37 191 162.63 113.92 132.92 62.75 118.38 37.7 108.42 20.55 120.28 0 130.24 17.16 144.78 42.2 186.42 113.92 231.17 191 241.23 208.34"/><polygon class="cls-2" points="217.44 208.34 129.51 208.34 122.09 195.56 119.44 191 207.37 191 217.44 208.34"/><polygon class="cls-1" points="132.7 113.92 108.7 113.92 103.87 105.59 101.68 101.84 91.53 84.34 91.54 84.31 81.38 67.38 81.53 67.13 93.5 46.4 101.88 60.84 103.45 63.55 103.51 63.65 114.12 81.93 126.51 103.25 132.7 113.92"/><polygon class="cls-3" points="159.8 160.62 101.81 160.62 99.71 157.01 91.36 142.62 149.36 142.62 159.8 160.62"/><polygon class="cls-4" points="91.54 84.31 91.53 84.34 91.49 84.28 74.53 113.64 74.37 113.92 63.56 132.64 50.1 155.96 29.87 191 19.86 208.34 0 208.34 10.01 191 40.14 138.81 53.61 115.49 54.51 113.92 64.58 96.49 81.38 67.38 91.54 84.31"/><polygon class="cls-3" points="80.51 208.34 19.86 208.34 29.87 191 70.44 191 80.51 208.34"/><path class="cls-4" d="M78,157.59l0-.05,3.88-6.7,3.47-6a4.46,4.46,0,0,1,3.86-2.23h2.16L99.71,157l2.1,3.61L119.44,191l2.65,4.56,7.42,12.78h-22L100,195.45,97.41,191,85.59,170.7l-5.87-10.08-1.76-3"/><line class="cls-5" x1="91.53" y1="84.34" x2="85.16" y2="95.34"/><line class="cls-5" x1="98.16" y1="95.34" x2="91.54" y2="84.31"/></g></g></svg>